<?xml version="1.0" encoding="utf-8"?>
<!-- Generated by IcoMoon.io -->
<!DOCTYPE svg PUBLIC "-//W3C//DTD SVG 1.1//EN" "http://www.w3.org/Graphics/SVG/1.1/DTD/svg11.dtd">
<svg version="1.1" xmlns="http://www.w3.org/2000/svg" xmlns:xlink="http://www.w3.org/1999/xlink" width="144" height="24" viewBox="0 0 144 24">
<svg id="icon-facebook" width="24" height="24" viewBox="0 0 24 24" x="0" y="0">
<path fill="#a6a6a6" d="M15.75 4.5c-2.071 0-3.75 1.679-3.75 3.75v2.25h-3v3h3v10.5h3v-10.5h3.375l0.75-3h-4.125v-2.25c0-0.414 0.336-0.75 0.75-0.75h3.75v-3h-3.75z"></path>
</svg>
<svg id="icon-twitter" width="24" height="24" viewBox="0 0 24 24" x="40" y="0">
<path fill="#a6a6a6" d="M24 4.557c-0.883 0.392-1.832 0.656-2.828 0.775 1.017-0.609 1.797-1.574 2.165-2.724-0.951 0.564-2.005 0.974-3.127 1.195-0.898-0.957-2.178-1.555-3.594-1.555-2.719 0-4.924 2.204-4.924 4.924 0 0.386 0.044 0.762 0.127 1.122-4.092-0.205-7.72-2.166-10.149-5.145-0.424 0.727-0.667 1.573-0.667 2.475 0 1.708 0.869 3.215 2.19 4.098-0.807-0.026-1.566-0.247-2.23-0.616-0 0.021-0 0.041-0 0.062 0 2.386 1.697 4.376 3.95 4.828-0.413 0.112-0.848 0.173-1.297 0.173-0.317 0-0.626-0.031-0.926-0.088 0.627 1.956 2.445 3.38 4.6 3.419-1.685 1.321-3.808 2.108-6.115 2.108-0.397 0-0.789-0.023-1.175-0.069 2.179 1.397 4.767 2.212 7.548 2.212 9.057 0 14.009-7.503 14.009-14.010 0-0.213-0.005-0.426-0.014-0.637 0.962-0.694 1.797-1.561 2.457-2.549z"></path>
</svg>
<svg id="icon-youtube3" width="24" height="24" viewBox="0 0 24 24" x="80" y="0">
<path fill="#a6a6a6" d="M6.872 0l-1.622 3.216-1.622-3.216h-2.068l2.923 5.093 0.017-0.010v3.917h1.5v-3.917l0.017 0.010 2.923-5.093z"></path>
<path fill="#a6a6a6" d="M11.25 3c0.407 0 0.75 0.343 0.75 0.75v3c0 0.407-0.343 0.75-0.75 0.75s-0.75-0.343-0.75-0.75v-3c0-0.407 0.343-0.75 0.75-0.75zM11.25 1.5c-1.238 0-2.25 1.013-2.25 2.25v3c0 1.238 1.012 2.25 2.25 2.25s2.25-1.012 2.25-2.25v-3c0-1.237-1.013-2.25-2.25-2.25v0z"></path>
<path fill="#a6a6a6" d="M18 1.5v5.905c-0.654 0.546-1.5 0.875-1.5-1.070v-4.836h-1.5v5.14h0.002c0.023 1.24 0.285 3.473 2.998 1.657v0.702h1.5v-7.5h-1.5z"></path>
<path fill="#a6a6a6" d="M20.25 16.5c-0.414 0-0.75 0.336-0.75 0.75v0.75h1.5v-0.75c0-0.414-0.336-0.75-0.75-0.75z"></path>
<path fill="#a6a6a6" d="M13.5 17.25v3.938c0.508 0.508 1.5 0.563 1.5-0.188s0-2.766 0-3.516-0.75-0.984-1.5-0.234z"></path>
<path fill="#a6a6a6" d="M23.877 13.63c-0.065-0.864-0.376-1.569-0.932-2.115s-1.268-0.844-2.134-0.893c-1.636-0.082-5.378-0.122-8.665-0.122s-7.296 0.041-8.932 0.122c-0.867 0.049-1.578 0.346-2.134 0.893s-0.867 1.251-0.932 2.115c-0.098 1.761-0.147 2.399-0.147 3.279s0.049 2.201 0.147 3.961c0.065 0.864 0.376 1.569 0.932 2.115s1.268 0.844 2.134 0.893c1.636 0.081 5.644 0.122 8.932 0.122s7.030-0.041 8.665-0.122c0.867-0.049 1.578-0.346 2.134-0.893s0.867-1.251 0.932-2.115c0.082-1.467 0.123-2.788 0.123-3.961s-0.041-1.812-0.123-3.279zM4.5 22.5h-1.5v-7.5h-1.5v-1.5h4.5v1.5h-1.5v7.5zM10.5 22.5h-1.5v-0.702c-2.852 1.601-2.975 0.052-2.998-1.189h-0.002v-4.109h1.5v4.133c0 0.906 0.846 0.819 1.5 0.273v-4.405h1.5v6zM16.5 20.979c0 1.568-1.606 2.025-3 0.806v0.715h-1.5v-9h1.5v2.438c1.5-1.5 3-0.938 3 0.563s0 2.84 0 4.479zM22.5 18v0.75h-3v1.5c0 0.414 0.336 0.75 0.75 0.75s0.75-0.336 0.75-0.75v-0.75h1.5v0.75c0 1.241-1.009 2.25-2.25 2.25s-2.25-1.009-2.25-2.25v-3c0-1.241 1.009-2.25 2.25-2.25s2.25 1.009 2.25 2.25v0.75z"></path>
</svg>
</svg>
